<svg width="17" height="17" viewBox="0 0 17 17" fill="none" xmlns="http://www.w3.org/2000/svg">
<g id="Frame 709">
<g clip-path="url(#clip0_10623_23476)">
<path d="M0.200195 4.3999C0.200195 2.19076 1.99106 0.399902 4.2002 0.399902H12.2002C14.4093 0.399902 16.2002 2.19076 16.2002 4.3999V12.3999C16.2002 14.609 14.4093 16.3999 12.2002 16.3999H4.2002C1.99106 16.3999 0.200195 14.609 0.200195 12.3999V4.3999Z" fill="#E3EABA"/>
<path d="M0.200195 4.3999C0.200195 2.19076 1.99106 0.399902 4.2002 0.399902H12.2002C14.4093 0.399902 16.2002 2.19076 16.2002 4.3999V12.3999C16.2002 14.609 14.4093 16.3999 12.2002 16.3999H4.2002C1.99106 16.3999 0.200195 14.609 0.200195 12.3999V4.3999Z" fill="white" fill-opacity="0.5"/>
<line id="Line 83" x1="-0.506911" y1="17.2074" x2="17.4931" y2="-0.792556" stroke="white" stroke-width="2"/>
</g>
</g>
<defs>
<clipPath id="clip0_10623_23476">
<path d="M0.200195 4.3999C0.200195 2.19076 1.99106 0.399902 4.2002 0.399902H12.2002C14.4093 0.399902 16.2002 2.19076 16.2002 4.3999V12.3999C16.2002 14.609 14.4093 16.3999 12.2002 16.3999H4.2002C1.99106 16.3999 0.200195 14.609 0.200195 12.3999V4.3999Z" fill="white"/>
</clipPath>
</defs>
</svg>
