<?xml version="1.0" encoding="UTF-8"?>
<svg xmlns="http://www.w3.org/2000/svg" version="1.1" viewBox="0 0 381 390">
  <defs>
    <style>
      .cls-1 {
        mix-blend-mode: soft-light;
      }

      .cls-2 {
        isolation: isolate;
      }
    </style>
  </defs>
  <!-- Generator: Adobe Illustrator 28.6.0, SVG Export Plug-In . SVG Version: 1.2.0 Build 709)  -->
  <g class="cls-2">
    <g id="_Шар_1" data-name="Шар_1">
      <g class="cls-1">
        <path d="M203,4.2l19.1,14.4c4.7,3.6,10.7,4.9,16.5,3.8l23.4-4.7c9.1-1.8,18.3,2.6,22.5,10.8l10.9,21.2c2.7,5.2,7.5,9.1,13.3,10.6l23.1,5.9c9,2.3,15.3,10.2,15.6,19.6l.7,23.8c.2,5.9,2.9,11.5,7.4,15.3l18.3,15.4c7.1,6,9.3,15.9,5.6,24.3l-9.7,21.8c-2.5,5.4-2.5,11.6,0,17l9.7,21.8c3.8,8.4,1.6,18.4-5.6,24.3l-18.3,15.4c-4.5,3.9-7.2,9.4-7.4,15.3l-.7,23.8c-.2,9.3-6.6,17.2-15.6,19.6l-23.1,5.9c-5.7,1.5-10.6,5.3-13.3,10.6l-10.9,21.2c-4.3,8.3-13.4,12.7-22.5,10.8l-23.4-4.7c-5.8-1.1-11.9.2-16.5,3.8l-19.1,14.4c-7.4,5.6-17.6,5.6-25,0l-19.1-14.4c-4.7-3.6-10.7-4.9-16.5-3.8l-23.4,4.7c-9.1,1.8-18.3-2.6-22.5-10.8l-10.9-21.2c-2.7-5.2-7.5-9.1-13.3-10.6l-23.1-5.9c-9-2.3-15.3-10.2-15.6-19.6l-.7-23.8c-.2-5.9-2.9-11.5-7.4-15.3l-18.3-15.4c-7.1-6-9.3-15.9-5.6-24.3l9.7-21.8c2.5-5.4,2.5-11.6,0-17l-9.8-21.8c-3.8-8.4-1.6-18.4,5.6-24.3l18.3-15.4c4.5-3.8,7.2-9.4,7.4-15.3l.7-23.8c.2-9.3,6.6-17.2,15.6-19.6l23.1-5.9c5.7-1.5,10.6-5.3,13.3-10.6l10.9-21.2c4.3-8.3,13.4-12.7,22.5-10.8l23.4,4.7c5.8,1.1,11.9-.2,16.5-3.8l19.1-14.4C181.6,1.5,186,0,190.5,0c4.5,0,8.9,1.5,12.5,4.2Z"/>
      </g>
    </g>
  </g>
</svg>