<svg width="52" height="22" viewBox="0 0 52 22" fill="none" xmlns="http://www.w3.org/2000/svg">
<g id="icon-apple-pay 1" clip-path="url(#clip0_9822_85409)">
<g id="Group 58">
<path id="Vector" d="M10.808 3.71638C11.3926 2.98515 11.7893 2.00332 11.6847 1C10.8289 1.04255 9.78454 1.5646 9.17991 2.29641C8.63703 2.92309 8.15653 3.94604 8.28179 4.90729C9.24248 4.99062 10.2023 4.4271 10.808 3.71638Z" fill="black"/>
<path id="Vector_2" d="M11.6745 5.09443C10.2793 5.01133 9.09312 5.88624 8.42687 5.88624C7.76025 5.88624 6.74 5.13631 5.63651 5.15652C4.20026 5.17762 2.86758 5.98969 2.13874 7.28126C0.63965 9.86504 1.74313 13.6977 3.20092 15.802C3.90886 16.8431 4.76204 17.9894 5.88625 17.9482C6.94843 17.9066 7.36476 17.2605 8.65589 17.2605C9.94606 17.2605 10.3211 17.9482 11.4455 17.9274C12.6115 17.9066 13.3405 16.8858 14.0484 15.8437C14.8605 14.6569 15.193 13.511 15.2139 13.4481C15.193 13.4272 12.9655 12.5727 12.9448 10.0104C12.9238 7.86497 14.6937 6.84447 14.777 6.78118C13.7775 5.30299 12.2159 5.13631 11.6745 5.09443Z" fill="black"/>
<path id="Vector_3" d="M23.822 2.19141C26.8543 2.19141 28.9658 4.28162 28.9658 7.3248C28.9658 10.3788 26.8109 12.4799 23.746 12.4799H20.3886V17.8191H17.9629V2.19141H23.822ZM20.3886 10.4438H23.1719C25.2839 10.4438 26.4858 9.3068 26.4858 7.33566C26.4858 5.36474 25.2839 4.23837 23.1828 4.23837H20.3886V10.4438Z" fill="black"/>
<path id="Vector_4" d="M29.5996 14.5805C29.5996 12.5877 31.1267 11.364 33.8344 11.2123L36.9532 11.0283V10.1511C36.9532 8.88399 36.0975 8.12591 34.6683 8.12591C33.3142 8.12591 32.4694 8.77557 32.2639 9.79373H30.0546C30.1845 7.7359 31.9388 6.21973 34.7547 6.21973C37.5163 6.21973 39.2815 7.68179 39.2815 9.9669V17.8186H37.0396V15.945H36.9858C36.3252 17.2122 34.8847 18.0135 33.3902 18.0135C31.1592 18.0135 29.5996 16.6273 29.5996 14.5805ZM36.9532 13.5517V12.6529L34.1481 12.826C32.751 12.9236 31.9606 13.5409 31.9606 14.5156C31.9606 15.5118 32.7836 16.1617 34.0399 16.1617C35.6751 16.1617 36.9532 15.0353 36.9532 13.5517Z" fill="black"/>
<path id="Vector_5" d="M41.3979 22.0102V20.1149C41.5708 20.1581 41.9606 20.1581 42.1557 20.1581C43.2387 20.1581 43.8236 19.7034 44.1808 18.5338C44.1808 18.512 44.3867 17.8407 44.3867 17.8298L40.2715 6.42578H42.8054L45.6865 15.6963H45.7295L48.6106 6.42578H51.0797L46.8124 18.4145C45.8381 21.1763 44.7118 22.0643 42.3508 22.0643C42.1557 22.0643 41.5708 22.0426 41.3979 22.0102Z" fill="black"/>
</g>
</g>
<defs>
<clipPath id="clip0_9822_85409">
<rect width="51" height="22" fill="white" transform="translate(0.550781)"/>
</clipPath>
</defs>
</svg>
