<svg width="61" height="28" viewBox="0 0 61 28" fill="none" xmlns="http://www.w3.org/2000/svg">
<g id="icon-privat--new 1" clip-path="url(#clip0_9822_85417)">
<path id="Vector" fill-rule="evenodd" clip-rule="evenodd" d="M34.2812 15.1294V19.8778H32.0518V7.09814H36.96C38.3935 7.09814 39.5317 7.46971 40.3746 8.21284C41.2177 8.95597 41.6392 9.93902 41.6392 11.162C41.6392 12.4142 41.2265 13.3885 40.4011 14.0848C39.5757 14.7812 38.4199 15.1294 36.9336 15.1294H34.2812ZM34.2167 13.2571H36.8867C37.6772 13.2571 38.2803 13.071 38.6961 12.6989C39.1118 12.3268 39.3196 11.7892 39.3196 11.086C39.3196 10.3945 39.1088 9.84223 38.6873 9.4291C38.2657 9.01597 37.686 8.80358 36.9482 8.79187H34.2167V13.2571ZM48.6371 18.9691C48.7076 19.379 48.79 19.6746 48.8841 19.8561H51.072V19.7069C50.8308 19.1975 50.7102 18.5153 50.7102 17.6605V13.3745C50.6926 12.3615 50.3515 11.5755 49.6869 11.0163C49.0223 10.4572 48.1312 10.1776 47.0138 10.1776C46.2786 10.1776 45.6126 10.3064 45.0156 10.564C44.4186 10.8216 43.9466 11.1774 43.5997 11.6311C43.2527 12.0849 43.0792 12.5724 43.0792 13.0935H45.2229C45.2229 12.7187 45.3788 12.4098 45.6905 12.1668C46.0022 11.9239 46.4021 11.8024 46.8903 11.8024C47.4549 11.8024 47.8754 11.9502 48.1518 12.2459C48.4282 12.5416 48.5665 12.9353 48.5665 13.4272V14.0508H47.252C45.8463 14.0508 44.7657 14.3215 44.0099 14.8632C43.2541 15.4048 42.8763 16.182 42.8763 17.195C42.8763 17.9972 43.1792 18.6705 43.7849 19.215C44.3907 19.7596 45.1729 20.0318 46.1316 20.0318C47.1197 20.0318 47.9548 19.6775 48.6371 18.9691ZM46.5541 18.3381C46.9787 18.3381 47.3783 18.2356 47.7529 18.0306C48.1274 17.8256 48.4091 17.5504 48.5978 17.2048V15.4127H47.4388C46.6425 15.4127 46.0439 15.5503 45.6427 15.8256C45.2417 16.1008 45.0412 16.4903 45.0412 16.994C45.0412 17.404 45.1783 17.7305 45.4525 17.9735C45.7268 18.2166 46.094 18.3381 46.5541 18.3381ZM58.0792 10.3316L56.1502 16.8045L54.1423 10.3316H51.8451L55.1769 19.8293L54.8701 20.6494C54.7122 21.1139 54.4975 21.4446 54.2257 21.6416C53.9538 21.8385 53.549 21.9369 53.0113 21.9369L52.6079 21.9105V23.5684C52.982 23.6742 53.324 23.7272 53.6338 23.7272C55.0192 23.7272 56.0012 22.9247 56.5798 21.3196L60.3501 10.3316H58.0792Z" fill="#212121"/>
<path id="Vector_2" fill-rule="evenodd" clip-rule="evenodd" d="M19.8724 14.4058V15.7352H18.6985V17.7986H17.3512V15.7352H13.5825V14.5016L13.6172 14.3914L17.4056 8.96504L17.5658 8.88184H18.6985V14.4058H19.8724ZM12.7955 16.4636V17.7986H6.79785L6.80926 17.5944C6.90896 15.8093 7.52769 15.0546 9.45537 13.8556C9.4532 13.857 9.79238 13.6458 9.88962 13.5841C10.9534 12.9082 11.4117 12.3814 11.4117 11.5765C11.4117 10.7331 10.82 10.1582 9.94686 10.1582C8.93709 10.1582 8.41769 10.9206 8.38925 12.1109L8.38478 12.2997H7.05695L7.04792 12.1157L7.03643 11.8776C7.03643 10.0879 8.22605 8.88184 9.99462 8.88184C11.7239 8.88184 12.8686 9.93974 12.8686 11.5542C12.8686 13.027 12.1672 13.7517 10.2044 14.9324L10.1653 14.9556L10.0382 15.0306C9.96813 15.0719 9.89096 15.1173 9.86007 15.1357C9.06052 15.6106 8.64649 15.966 8.45239 16.4636H12.7955ZM17.3513 14.4029H15.1659L17.3513 11.1835V14.4029Z" fill="black" fill-opacity="0.87"/>
<path id="Vector_3" fill-rule="evenodd" clip-rule="evenodd" d="M0.350586 13.5184C0.350586 6.33228 6.20794 0.5 13.4252 0.5C20.6423 0.5 26.4997 6.33228 26.4997 13.5184C26.4997 20.7047 20.6423 26.5369 13.4252 26.5369C6.20794 26.5369 0.350586 20.7047 0.350586 13.5184ZM2.01088 13.5184C2.01088 19.7836 7.13301 24.8838 13.4252 24.8838C19.7173 24.8838 24.8394 19.7836 24.8394 13.5184C24.8394 7.25332 19.7173 2.15312 13.4252 2.15312C7.13301 2.15312 2.01088 7.25332 2.01088 13.5184Z" fill="#8DC641"/>
</g>
<defs>
<clipPath id="clip0_9822_85417">
<rect width="60" height="27" fill="white" transform="translate(0.350586 0.5)"/>
</clipPath>
</defs>
</svg>
