<svg width="54" height="24" viewBox="0 0 54 24" fill="none" xmlns="http://www.w3.org/2000/svg">
<g id="icon-google-pay 1" clip-path="url(#clip0_9822_85399)">
<g id="Group 57">
<path id="Vector" d="M24.9274 13.0892V19.2056H22.9863V4.10156H28.1322C29.4364 4.10156 30.5485 4.53629 31.4584 5.40573C32.3885 6.27518 32.8535 7.33671 32.8535 8.59033C32.8535 9.87427 32.3885 10.9358 31.4584 11.7951C30.5586 12.6545 29.4465 13.0791 28.1322 13.0791H24.9274V13.0892ZM24.9274 5.96177V11.229H28.1727C28.941 11.229 29.588 10.9661 30.0935 10.4505C30.6091 9.93493 30.872 9.30812 30.872 8.60043C30.872 7.90286 30.6091 7.28616 30.0935 6.77056C29.588 6.23474 28.9511 5.97188 28.1727 5.97188H24.9274V5.96177Z" fill="#3C4043"/>
<path id="Vector_2" d="M37.9289 8.53027C39.3645 8.53027 40.4968 8.91445 41.3258 9.68279C42.1548 10.4511 42.5693 11.5026 42.5693 12.8371V19.2062H40.7192V17.7707H40.6383C39.8397 18.9535 38.768 19.5399 37.4335 19.5399C36.2911 19.5399 35.3408 19.2062 34.5724 18.5289C33.8041 17.8515 33.4199 17.0124 33.4199 16.0014C33.4199 14.9298 33.8243 14.0806 34.6331 13.4538C35.4419 12.8168 36.5236 12.5034 37.8682 12.5034C39.0208 12.5034 39.9711 12.7157 40.7091 13.1404V12.6955C40.7091 12.0182 40.4463 11.452 39.9104 10.9769C39.3746 10.5017 38.7478 10.2692 38.03 10.2692C36.9483 10.2692 36.0889 10.7241 35.4621 11.6441L33.7535 10.5725C34.6938 9.20763 36.0889 8.53027 37.9289 8.53027ZM35.4217 16.0318C35.4217 16.5373 35.634 16.9619 36.0687 17.2955C36.4933 17.6291 36.9988 17.801 37.5751 17.801C38.394 17.801 39.1219 17.4977 39.7588 16.8911C40.3957 16.2845 40.7192 15.5768 40.7192 14.7579C40.1126 14.2828 39.2735 14.0401 38.1918 14.0401C37.4032 14.0401 36.7461 14.2322 36.2203 14.6063C35.6845 15.0006 35.4217 15.4757 35.4217 16.0318Z" fill="#3C4043"/>
<path id="Vector_3" d="M53.1233 8.86426L46.653 23.7459H44.6512L47.0574 18.5394L42.791 8.86426H44.904L47.9774 16.2849H48.0178L51.0103 8.86426H53.1233Z" fill="#3C4043"/>
<path id="Vector_4" d="M17.2083 11.8559C17.2083 11.2231 17.1517 10.6175 17.0465 10.0352H8.91016V13.3714L13.5961 13.3724C13.406 14.4825 12.7943 15.4287 11.8572 16.0596V18.2241H14.6465C16.2752 16.7167 17.2083 14.4885 17.2083 11.8559Z" fill="#4285F4"/>
<path id="Vector_5" d="M11.858 16.0594C11.0815 16.583 10.0817 16.8894 8.91195 16.8894C6.65241 16.8894 4.73559 15.3668 4.04913 13.3145H1.17188V15.5468C2.59736 18.3755 5.52719 20.3166 8.91195 20.3166C11.2514 20.3166 13.2167 19.5472 14.6473 18.2229L11.858 16.0594Z" fill="#34A853"/>
<path id="Vector_6" d="M3.77732 11.6598C3.77732 11.0835 3.87336 10.5264 4.04826 10.0028V7.77051H1.171C0.581601 8.94022 0.25 10.2606 0.25 11.6598C0.25 13.059 0.582612 14.3793 1.171 15.549L4.04826 13.3168C3.87336 12.7931 3.77732 12.236 3.77732 11.6598Z" fill="#FABB05"/>
<path id="Vector_7" d="M8.91196 6.42723C10.1888 6.42723 11.3322 6.86701 12.2351 7.72634L14.7069 5.25651C13.2056 3.85833 11.2483 3 8.91196 3C5.5282 3 2.59736 4.94109 1.17188 7.76981L4.04913 10.0021C4.73559 7.94977 6.65241 6.42723 8.91196 6.42723Z" fill="#E94235"/>
</g>
</g>
<defs>
<clipPath id="clip0_9822_85399">
<rect width="53" height="24" fill="white" transform="translate(0.25)"/>
</clipPath>
</defs>
</svg>
