<svg width="61" height="20" viewBox="0 0 61 20" fill="none" xmlns="http://www.w3.org/2000/svg">
<g id="icon-visa--new 1" clip-path="url(#clip0_9822_85383)">
<path id="Vector" fill-rule="evenodd" clip-rule="evenodd" d="M9.35397 0.5C11.1283 0.5 12.5083 1.48901 12.5083 2.87363L13.1797 10.8955C13.177 10.8896 13.1744 10.8836 13.1717 10.8777L13.6909 12.9614L18.4223 0.895508H23.1537L15.8595 18.6977H10.7338L6.24325 3.11607C4.62882 2.12532 2.77252 1.34102 0.679688 0.895604V0.5H9.35397ZM22.168 18.6977L25.1252 0.895508H29.8566L26.8995 18.6977H22.168ZM36.7566 6.03836C36.7566 6.82957 37.7423 7.42298 39.3194 8.21419L39.5166 8.41199C42.2766 9.5988 43.4594 10.9834 43.4594 12.9614C43.4594 16.5219 40.3052 18.8955 35.1794 18.8955C33.208 18.8955 31.0395 18.4999 30.0537 18.1043L30.6452 14.1483L31.2366 14.3461C32.6481 15.0331 34.2025 15.3721 35.7709 15.3351C37.1509 15.3351 38.5309 14.7417 38.5309 13.5548C38.5309 12.9614 37.9394 12.368 35.968 11.5768C34.3909 10.7856 32.0252 9.2032 32.0252 6.82957C32.0252 3.46694 35.1794 1.09331 39.9109 1.09331C41.3261 1.11455 42.7269 1.38226 44.0509 1.88452L43.2623 5.24716H42.868C41.7561 4.72907 40.5454 4.45912 39.3194 4.45595C37.5452 4.45595 36.7566 5.24716 36.7566 6.03836ZM52.3309 0.895508H55.8794L59.8223 18.6977H55.6823L54.8937 15.1373H49.3737L47.9937 18.6977H42.868L49.9652 2.47793C50.3594 1.29111 51.3451 0.895508 52.3309 0.895508ZM52.528 5.64276L50.5566 11.5768H53.908L52.528 5.64276Z" fill="#085DB8"/>
</g>
<defs>
<clipPath id="clip0_9822_85383">
<rect width="60" height="19" fill="white" transform="translate(0.150391 0.5)"/>
</clipPath>
</defs>
</svg>
