<svg width="42" height="28" viewBox="0 0 42 28" fill="none" xmlns="http://www.w3.org/2000/svg">
<g id="icon-mastercard--new 1" clip-path="url(#clip0_9822_85386)">
<g id="Group 56">
<path id="Vector" d="M26.9931 3.72559H15.9072V23.761H26.9931V3.72559Z" fill="#FF5F00"/>
<path id="Vector_2" d="M16.6111 13.7434C16.6111 9.67257 18.5116 6.06195 21.4326 3.72567C19.2858 2.02655 16.576 1 13.6197 1C6.6163 1 0.950195 6.69912 0.950195 13.7434C0.950195 20.7876 6.6163 26.4867 13.6197 26.4867C16.576 26.4867 19.2858 25.4602 21.4326 23.7611C18.5116 21.4602 16.6111 17.8142 16.6111 13.7434Z" fill="#EB001B"/>
<path id="Vector_3" d="M41.9502 13.7434C41.9502 20.7876 36.2841 26.4867 29.2807 26.4867C26.3244 26.4867 23.6146 25.4602 21.4678 23.7611C24.424 21.4248 26.2892 17.8142 26.2892 13.7434C26.2892 9.67257 24.3888 6.06195 21.4678 3.72567C23.6146 2.02655 26.3244 1 29.2807 1C36.2841 1 41.9502 6.73451 41.9502 13.7434Z" fill="#F79E1B"/>
</g>
</g>
<defs>
<clipPath id="clip0_9822_85386">
<rect width="41" height="28" fill="white" transform="translate(0.950195)"/>
</clipPath>
</defs>
</svg>
