<svg width="68" height="17" viewBox="0 0 68 17" fill="none" xmlns="http://www.w3.org/2000/svg">
<g id="vendor-09-oppo 2" clip-path="url(#clip0_10731_29726)">
<g id="&#208;&#161;&#208;&#187;&#208;&#190;&#208;&#185; 2">
<g id="svg4">
<path id="path1460" d="M17.4607 8.47866V0.760996H19.8662V1.27115C19.8662 1.55181 19.8702 1.78131 19.8756 1.78131C19.881 1.78131 20.0324 1.68911 20.2121 1.5794C22.3443 0.242088 25.4395 -0.159712 28.2158 0.536876C30.7168 1.16482 32.5299 2.65625 33.1747 4.61478C33.5517 5.7628 33.5315 7.00426 33.1175 8.13945C32.6026 9.51647 31.546 10.6243 30.0215 11.3821C28.6867 12.0489 27.1636 12.3822 25.4523 12.3822C24.039 12.3822 22.7158 12.1467 21.5534 11.6857C21.0624 11.4882 20.5895 11.2484 20.1401 10.9689L19.8662 10.7851V16.2004H17.4607V8.47866ZM26.6194 10.3248C27.9735 10.133 29.0241 9.7029 29.8122 9.0191C30.4136 8.49232 30.8245 7.78194 30.9813 6.99799C31.0486 6.67628 31.0486 5.91575 30.9813 5.59471C30.7917 4.66198 30.251 3.83772 29.471 3.29227C29.0379 3.00698 28.5725 2.77405 28.0846 2.59837C26.9121 2.20398 25.4907 2.08687 24.1884 2.27801C21.9277 2.60982 20.3999 3.73109 19.99 5.35915C19.809 6.07633 19.8403 6.83066 20.0802 7.53036C20.624 9.06958 22.2218 10.0939 24.4872 10.3497C24.9422 10.4008 26.1906 10.3874 26.62 10.3268L26.6194 10.3248ZM34.6009 8.47866V0.760996H37.009V1.27115C37.009 1.55181 37.0137 1.78131 37.0204 1.78131C37.0271 1.78131 37.159 1.69853 37.3145 1.5969C37.7995 1.30036 38.3101 1.04808 38.8403 0.843106C40.8069 0.117577 43.2076 -0.00154978 45.3068 0.528127C48.7318 1.38759 50.7489 3.74388 50.5564 6.66214C50.4111 8.88921 48.929 10.7192 46.4906 11.6803C45.6958 11.9939 44.8807 12.1918 43.8604 12.319C43.322 12.3863 41.8716 12.3863 41.3096 12.319C39.7186 12.1292 38.322 11.6567 37.2338 10.9399L37.0049 10.7899V16.2004H34.6009V8.47866ZM43.8214 10.3133C45.6965 10.0334 47.0183 9.27755 47.7129 8.09234C48.1167 7.40113 48.2674 6.48244 48.1167 5.62971C47.8037 3.85493 46.249 2.62799 43.8598 2.27801C42.2849 2.04649 40.5074 2.27801 39.2986 2.86826C38.0647 3.47219 37.3215 4.37473 37.0689 5.57587C37.0016 5.89152 37.0016 6.70253 37.0689 7.01212C37.2264 7.80812 37.6498 8.52695 38.2696 9.05074C39.1176 9.76348 40.2213 10.1882 41.6536 10.3524C42.1247 10.4069 43.3469 10.386 43.818 10.3154L43.8214 10.3133ZM7.51601 12.3634C6.23725 12.2503 5.14895 11.9986 4.22219 11.6029C2.11358 10.6997 0.782319 9.18265 0.4209 7.2672C0.346331 6.74094 0.329406 6.20811 0.370423 5.67817C0.63156 3.37842 2.32558 1.55652 5.00425 0.697731C6.42906 0.240069 8.18366 0.0920017 9.75855 0.293911C12.6438 0.664079 14.8265 2.00207 15.7862 3.98819C16.5669 5.60346 16.468 7.57007 15.5291 9.08035C15.1058 9.76079 14.4099 10.4634 13.6918 10.9325C12.5759 11.6601 11.2426 12.113 9.6226 12.3149C9.2982 12.3553 7.81685 12.3883 7.51601 12.3621V12.3634ZM9.22416 10.3524C10.48 10.2178 11.5367 9.86039 12.3316 9.29774C12.981 8.83739 13.4952 8.15964 13.7261 7.45901C13.8607 7.04846 13.8883 6.85328 13.8883 6.29534C13.8883 5.7374 13.8614 5.54558 13.7274 5.13503C13.2873 3.78897 11.9984 2.77942 10.1987 2.3857C8.62045 2.03841 6.77971 2.15888 5.41547 2.69933C4.43217 3.08902 3.65549 3.72032 3.19985 4.50036C2.71594 5.32954 2.60556 6.45889 2.91449 7.43209C3.24764 8.48068 4.12594 9.35831 5.33134 9.85097C6.06047 10.1354 6.82736 10.3114 7.60754 10.3732C8.14593 10.3964 8.6852 10.3895 9.22282 10.3524H9.22416ZM58.8859 12.3641L58.4935 12.325C57.1643 12.1992 55.767 11.7799 54.7427 11.1984C53.3583 10.413 52.3938 9.29707 51.9536 7.96783C51.6546 7.05223 51.6051 6.07343 51.8103 5.13234C52.1219 3.7284 52.9767 2.53646 54.3005 1.65478C56.0504 0.492456 58.6234 -0.0244329 61.1076 0.288527C63.1711 0.548991 64.8712 1.30346 66.0544 2.48463C66.9555 3.38448 67.4731 4.43643 67.6232 5.67682C67.6611 6.11435 67.6571 6.5545 67.6111 6.99126C67.286 9.45119 65.3362 11.331 62.3507 12.0632C61.4454 12.2853 60.8767 12.352 59.812 12.3634C59.3516 12.3681 58.937 12.3674 58.8832 12.3634L58.8859 12.3641ZM60.4689 10.3631C62.0586 10.2171 63.3541 9.69012 64.186 8.86027C64.7493 8.29627 65.0764 7.67573 65.205 6.9253C65.2585 6.5023 65.2585 6.07425 65.205 5.65125C64.9149 3.92492 63.3932 2.67375 61.1378 2.30762C60.654 2.22423 60.1636 2.18526 59.6727 2.19119C57.1441 2.19119 55.1815 3.1442 54.427 4.73996C54.1999 5.22596 54.0875 5.75766 54.0986 6.294C54.0986 7.07 54.2796 7.68515 54.6875 8.29896C55.4373 9.42427 56.858 10.1437 58.7392 10.349C59.3152 10.3928 59.8935 10.3975 60.4702 10.3631H60.4689Z" fill="#E5E4E2"/>
</g>
</g>
</g>
<defs>
<clipPath id="clip0_10731_29726">
<rect width="67.3032" height="16" fill="white" transform="translate(0.348633 0.200195)"/>
</clipPath>
</defs>
</svg>
