<svg width="16" height="17" viewBox="0 0 16 17" fill="none" xmlns="http://www.w3.org/2000/svg">
<g id="vendor-12-mi 1" clip-path="url(#clip0_10731_29711)">
<g id="&#208;&#161;&#208;&#187;&#208;&#190;&#208;&#185; 2">
<g id="Layer 1">
<path id="Exclude" fill-rule="evenodd" clip-rule="evenodd" d="M8 0.200195C10.6525 0.200195 12.8228 0.36832 14.3322 1.87207C15.8438 3.37926 16 5.55488 16 8.20801C16 10.8611 15.8459 13.0314 14.3372 14.5396C12.8284 16.0477 10.6562 16.2002 8 16.2002C5.34375 16.2002 3.17125 16.0471 1.66219 14.5396C0.153125 13.0321 0 10.8608 0 8.20801C0 5.5552 0.1525 3.38582 1.66156 1.87801C3.17062 0.370195 5.3475 0.200195 8 0.200195ZM12.713 5.18584C12.6941 5.16735 12.6686 5.15707 12.6422 5.15723H11.3456C11.3325 5.15707 11.3195 5.15949 11.3073 5.16437C11.2951 5.16925 11.284 5.17648 11.2747 5.18566C11.2653 5.19483 11.2578 5.20576 11.2527 5.21783C11.2475 5.2299 11.2448 5.24287 11.2447 5.25598V11.1741C11.2452 11.2005 11.2561 11.2256 11.275 11.2439C11.2939 11.2623 11.3193 11.2725 11.3456 11.2722H12.6422C12.6685 11.2724 12.6939 11.2622 12.7128 11.2439C12.7317 11.2255 12.7426 11.2004 12.7431 11.1741V5.25598C12.7427 5.22954 12.7319 5.20433 12.713 5.18584ZM9.52032 5.70661C9.01501 5.20192 7.99313 5.15723 7.01501 5.15723H3.27157C3.25852 5.15715 3.24558 5.15964 3.23349 5.16456C3.2214 5.16948 3.2104 5.17673 3.20112 5.1859C3.19183 5.19507 3.18444 5.20598 3.17937 5.218C3.1743 5.23003 3.17165 5.24293 3.17157 5.25598V11.1741C3.1719 11.2004 3.1826 11.2254 3.20134 11.2438C3.22007 11.2622 3.24532 11.2724 3.27157 11.2722H4.56907C4.59543 11.2725 4.62083 11.2623 4.63973 11.2439C4.65863 11.2256 4.66951 11.2005 4.67001 11.1741V6.52911C4.67042 6.50283 4.68119 6.47778 4.69997 6.45941C4.71876 6.44103 4.74404 6.43082 4.77032 6.43098H7.12063C7.58282 6.44223 8.02719 6.49692 8.26532 6.73598C8.54282 7.01348 8.57407 7.56473 8.57407 8.1013V11.1741C8.57456 11.2005 8.58545 11.2256 8.60435 11.2439C8.62325 11.2623 8.64865 11.2725 8.67501 11.2722H9.97157C9.99788 11.2724 10.0232 11.2622 10.042 11.2438C10.0609 11.2255 10.0717 11.2004 10.0722 11.1741V8.15317C10.07 7.19255 10.0163 6.20348 9.52032 5.70661ZM7.37535 7.54172C7.35661 7.52327 7.33131 7.51301 7.30501 7.51317H5.94313C5.93004 7.51301 5.91705 7.51542 5.90489 7.52028C5.89273 7.52514 5.88165 7.53234 5.87227 7.54148C5.8629 7.55062 5.85542 7.56152 5.85026 7.57355C5.8451 7.58559 5.84236 7.59852 5.84219 7.61161V11.1741C5.84261 11.2005 5.85346 11.2256 5.87238 11.244C5.8913 11.2624 5.91675 11.2726 5.94313 11.2722H7.30501C7.33126 11.2724 7.35651 11.2622 7.37524 11.2438C7.39398 11.2254 7.40468 11.2004 7.40501 11.1741V7.61161C7.40476 7.58531 7.39409 7.56018 7.37535 7.54172Z" fill="#E5E4E2"/>
</g>
</g>
</g>
<defs>
<clipPath id="clip0_10731_29711">
<rect width="16" height="16" fill="white" transform="translate(0 0.200195)"/>
</clipPath>
</defs>
</svg>
