<svg width="106" height="17" viewBox="0 0 106 17" fill="none" xmlns="http://www.w3.org/2000/svg">
<g id="vendor-03-samsung 2" clip-path="url(#clip0_10731_29700)">
<g id="&#208;&#161;&#208;&#187;&#208;&#190;&#208;&#185; 2">
<g id="Camada 1">
<g id="g907">
<path id="polygon16" d="M90.7565 0.675293V15.4591H85.4391L81.7481 3.32606H81.6686L81.8733 15.4591H78.1982V0.675293H83.7468L87.1801 12.4044H87.2628L87.0581 0.675293H90.7565Z" fill="#E5E4E2"/>
<path id="polygon18" d="M22.1049 15.6139L20.1147 2.05899H20.031L17.9846 15.6139H13.9512L16.7207 0.675293H23.3656L26.1235 15.6139H22.1049Z" fill="#E5E4E2"/>
<path id="polygon20" d="M35.528 0.675293L37.3729 12.0948H37.4524L39.2984 0.675293H45.3909L45.7143 15.6139H41.981L41.8824 2.18305H41.805L39.308 15.6139H35.5174L33.0182 2.18305H32.9377L32.8444 15.6139H29.1025L29.4323 0.675293H35.528Z" fill="#E5E4E2"/>
<path id="path22" d="M7.66023 11.3991C7.80549 11.7618 7.76096 12.2262 7.6931 12.5072C7.56798 13.0044 7.23081 13.5113 6.2373 13.5113C5.30105 13.5113 4.73273 12.9737 4.73273 12.153V10.7078H0.722656V11.8635C0.722656 15.194 3.34479 16.1991 6.1546 16.1991C8.85625 16.1991 11.0818 15.2745 11.436 12.786C11.6173 11.4956 11.4826 10.6506 11.4201 10.3314C10.7956 7.20563 5.11974 6.27256 4.69774 4.52306C4.63944 4.26421 4.63403 3.99625 4.68183 3.73525C4.78787 3.25917 5.11232 2.73326 6.04645 2.73326C6.92014 2.73326 7.43545 3.27296 7.43545 4.08939V5.01186H11.1614V3.96216C11.1614 0.708081 8.24022 0.200195 6.13021 0.200195C3.46779 0.200195 1.29522 1.07813 0.898667 3.51047C0.777941 4.17774 0.789469 4.86222 0.932597 5.52505C1.58468 8.57766 6.89151 9.46196 7.65917 11.3949L7.66023 11.3991Z" fill="#E5E4E2"/>
<path id="path24" d="M56.2384 11.3724C56.3858 11.7308 56.3381 12.1836 56.2713 12.4646C56.1494 12.9597 55.8164 13.4581 54.8293 13.4581C53.9047 13.4581 53.3449 12.9215 53.3449 12.12V10.6864H49.3793L49.374 11.8284C49.374 15.1249 51.9728 16.1205 54.754 16.1205C57.427 16.1205 59.6314 15.2086 59.9803 12.7424C60.1605 11.4615 60.0322 10.6281 59.9675 10.3153C59.3398 7.21605 53.7266 6.29252 53.3099 4.56105C53.2513 4.30722 53.2462 4.04397 53.295 3.78808C53.4011 3.30776 53.7192 2.79564 54.648 2.79564C55.5132 2.79564 56.0179 3.32579 56.0179 4.13162V5.04454H59.7152V4.00651C59.7088 0.78742 56.8131 0.282715 54.7158 0.282715C52.0884 0.282715 49.9349 1.15429 49.5458 3.5633C49.427 4.22436 49.4389 4.9023 49.5808 5.55879C50.2233 8.5796 55.4782 9.45753 56.2384 11.3724Z" fill="#E5E4E2"/>
<path id="path26" d="M68.7863 13.3788C69.8222 13.3788 70.1467 12.6621 70.2177 12.2952C70.2472 12.1062 70.2589 11.9149 70.2527 11.7237V0.668945H74.0306V11.3854C74.0391 11.6601 74.0115 12.2252 73.9988 12.3662C73.7337 15.1559 71.5293 16.0603 68.7842 16.0603C66.0391 16.0603 63.8305 15.1559 63.5686 12.3662C63.5558 12.2252 63.5283 11.6601 63.5367 11.3854V0.668945H67.3093V11.7237C67.3057 11.9148 67.3174 12.1059 67.3443 12.2952C67.427 12.6621 67.7419 13.3788 68.7863 13.3788Z" fill="#E5E4E2"/>
<path id="path28" d="M99.9516 13.2216C101.034 13.2216 101.412 12.5377 101.482 12.139C101.507 11.9507 101.518 11.7607 101.514 11.5707V9.40236H99.9813V7.22131H105.283V11.2271C105.283 11.506 105.273 11.7128 105.229 12.2111C104.975 14.9382 102.618 15.9031 99.9675 15.9031C97.3167 15.9031 94.9607 14.9329 94.7084 12.2153C94.6649 11.717 94.6585 11.5102 94.6543 11.2314V4.93953C94.6543 4.67446 94.6872 4.20474 94.7158 3.95557C95.054 1.16379 97.3167 0.264648 99.9675 0.264648C102.618 0.264648 104.939 1.15424 105.214 3.95557C105.244 4.28265 105.255 4.61119 105.247 4.93953V5.43894H101.479V4.60236C101.479 4.41188 101.463 4.22178 101.431 4.03403C101.367 3.70322 101.08 2.9451 99.9463 2.9451C98.8573 2.9451 98.5382 3.66187 98.4618 4.03403C98.4155 4.26576 98.3942 4.50179 98.3982 4.73807V11.5707C98.394 11.7609 98.4068 11.9511 98.4364 12.139C98.5011 12.5387 98.8775 13.2216 99.959 13.2216H99.9516Z" fill="#E5E4E2"/>
</g>
</g>
</g>
</g>
<defs>
<clipPath id="clip0_10731_29700">
<rect width="104.556" height="16" fill="white" transform="translate(0.722656 0.200195)"/>
</clipPath>
</defs>
</svg>
