<svg width="60" height="17" viewBox="0 0 60 17" fill="none" xmlns="http://www.w3.org/2000/svg">
<g id="vendor-24-google-pixel 2" clip-path="url(#clip0_10731_29685)">
<g id="&#208;&#161;&#208;&#187;&#208;&#190;&#208;&#185; 2">
<g id="Layer 1">
<path id="Vector" d="M21.358 15.8544H19.3662V0.370903H24.6412C25.9544 0.370903 27.0897 0.8072 28.0469 1.67979C29.0041 2.55239 29.4828 3.65116 29.4828 4.9761C29.4828 6.3025 29.0041 7.40127 28.0469 8.27241C27.0897 9.14354 25.9544 9.57984 24.6412 9.5813H21.3536L21.358 15.8544ZM21.358 7.68144H24.6893C25.5254 7.68144 26.1952 7.39981 26.6986 6.83657C27.2021 6.27624 27.456 5.65462 27.456 4.9761C27.456 4.29758 27.2021 3.68034 26.6986 3.11564C26.1952 2.55093 25.5268 2.27077 24.6893 2.27077H21.358V7.68144ZM33.3876 2.59908C33.124 2.86255 32.7665 3.01056 32.3938 3.01056C32.0212 3.01056 31.6637 2.86255 31.4001 2.59908C31.267 2.47055 31.1618 2.31599 31.091 2.14504C31.0202 1.97408 30.9854 1.79038 30.9886 1.60538C30.985 1.42031 31.0196 1.23649 31.0904 1.06547C31.1612 0.894454 31.2667 0.739946 31.4001 0.611669C31.6637 0.3482 32.0212 0.200195 32.3938 0.200195C32.7665 0.200195 33.124 0.3482 33.3876 0.611669C33.5209 0.740106 33.6263 0.894614 33.6973 1.06557C33.7684 1.23653 33.8034 1.42028 33.8004 1.60538C33.804 1.79047 33.7692 1.9743 33.6983 2.14532C33.6274 2.31633 33.5219 2.47083 33.3884 2.59908H33.3876ZM33.3876 15.8544H31.4001V5.26064H33.3876V15.8544ZM44.8178 15.8544H42.4846L39.8668 11.9408L37.2928 15.8544H34.9595L38.698 10.4699L35.0427 5.26064H37.2928L39.9106 8.99908L42.397 5.26064H44.7303L41.0312 10.4699L44.8178 15.8544ZM51.016 16.2002C49.4144 16.2002 48.1129 15.6676 47.1116 14.6024C46.1092 13.5342 45.6097 12.1903 45.6097 10.5575C45.6097 9.01659 46.0958 7.69019 47.0679 6.57829C48.04 5.46639 49.2831 4.9119 50.7971 4.91481C52.3693 4.91481 53.6271 5.42699 54.5706 6.45134C55.5141 7.47569 55.9854 8.84441 55.9845 10.5575L55.9627 10.9252H47.6015C47.6588 11.9933 48.0174 12.8338 48.6701 13.4554C49.3228 14.0771 50.0928 14.3835 50.9722 14.3835C52.3993 14.3835 53.3653 13.7779 53.8702 12.5668L55.6431 13.3022C55.2973 14.1252 54.7282 14.8139 53.9358 15.3684C53.1435 15.92 52.1721 16.2002 51.016 16.2002ZM53.8702 9.27925C53.8264 8.67514 53.5506 8.0973 53.0384 7.55011C52.5263 7.00291 51.7646 6.72713 50.7577 6.72713C50.0223 6.72713 49.3832 6.95914 48.8452 7.41878C48.3072 7.87843 47.9342 8.50004 47.7328 9.27925H53.8702ZM59.7755 15.8544H57.7894V0.370903H59.7768L59.7755 15.8544Z" fill="#E5E4E2"/>
<path id="Vector_2" d="M15.8297 8.38633C15.8273 7.8464 15.7803 7.30758 15.6892 6.77539H8.18164V9.84406H12.4848C12.3988 10.3344 12.2125 10.8018 11.9375 11.2168C11.6626 11.6318 11.305 11.9857 10.887 12.2561L13.4522 14.2523C14.9625 12.8427 15.8297 10.794 15.8297 8.38633Z" fill="#E5E4E2"/>
<path id="Vector_3" d="M8.1819 16.1563C10.3317 16.1563 12.1348 15.4471 13.4569 14.2301L10.8916 12.2515C10.1824 12.7374 9.26316 13.0132 8.18628 13.0132C6.10694 13.0132 4.35153 11.608 3.71241 9.73438L1.06836 11.7656C1.73009 13.0853 2.74588 14.1948 4.00214 14.9702C5.25841 15.7456 6.70561 16.1563 8.1819 16.1563Z" fill="#E5E4E2"/>
<path id="Vector_4" d="M3.70815 9.72145C3.37983 8.73089 3.37983 7.66084 3.70815 6.67028L1.06804 4.62158C0.513378 5.73065 0.224609 6.95364 0.224609 8.19368C0.224609 9.43371 0.513378 10.6567 1.06804 11.7658L3.70815 9.72145Z" fill="#E5E4E2"/>
<path id="Vector_5" d="M8.1819 3.39157C9.31622 3.37565 10.4117 3.80465 11.2335 4.58664L13.5055 2.29718C12.0632 0.94859 10.1563 0.208456 8.1819 0.230968C6.70561 0.230936 5.2584 0.641584 4.00214 1.41699C2.74588 2.19239 1.73009 3.30198 1.06836 4.62167L3.70365 6.67037C4.34759 4.77488 6.09818 3.39157 8.1819 3.39157Z" fill="#E5E4E2"/>
</g>
</g>
</g>
<defs>
<clipPath id="clip0_10731_29685">
<rect width="59.5511" height="16" fill="white" transform="translate(0.224609 0.200195)"/>
</clipPath>
</defs>
</svg>
