<svg width="68" height="17" viewBox="0 0 68 17" fill="none" xmlns="http://www.w3.org/2000/svg">
<g id="vendor-04-one-plus 2" clip-path="url(#clip0_10731_29693)">
<g id="&#208;&#161;&#208;&#187;&#208;&#190;&#208;&#185; 2">
<g id="&#208;&#161;&#208;&#187;&#208;&#190;&#208;&#185; 1">
<path id="Vector" d="M13.0289 0.205566H14.1285V2.46098C14.8803 2.47221 15.6209 2.47221 16.3727 2.46098C16.397 2.84974 16.3932 3.23975 16.3615 3.62797C15.6209 3.5943 14.8691 3.60552 14.1285 3.61675C14.1285 4.36855 14.1397 5.13158 14.1285 5.89461C13.7582 5.88338 13.3879 5.88338 13.0176 5.88338V3.61675C12.2434 3.5943 11.4691 3.60552 10.6949 3.60552V2.46098C11.4691 2.47221 12.2434 2.47221 13.0176 2.46098C13.0176 1.70918 13.0176 0.957372 13.0289 0.205566ZM0.382812 2.46098C3.16562 2.46098 5.94842 2.48343 8.74245 2.46098C8.76489 2.83128 8.74244 3.21279 8.76489 3.5943C6.35238 3.61675 3.93986 3.60552 1.52735 3.60552V15.0397C5.35371 15.0397 9.19129 15.0509 13.0176 15.0285V7.81339H14.1285C14.1285 10.6074 14.151 13.4014 14.1285 16.1955C9.53913 16.173 4.96097 16.1842 0.382812 16.1842V2.46098ZM18.4374 2.47221C34.8312 2.47221 51.2251 2.47221 67.6189 2.47221V16.1842C51.2139 16.1842 34.8125 16.188 18.4149 16.1955C18.3027 16.0047 18.3588 15.7691 18.3476 15.5671C18.3476 11.2358 18.3364 6.90449 18.3476 2.57319C18.3803 2.54207 18.4103 2.50829 18.4374 2.47221ZM24.2947 5.99559C23.5163 6.17759 22.8328 6.64125 22.3759 7.29723C21.4446 8.68863 21.6017 10.7533 22.836 11.9091C24.2274 13.177 26.696 13.0648 27.8854 11.5724C28.9851 10.181 28.8729 7.94805 27.5376 6.73618C26.6736 5.96193 25.4168 5.73751 24.2947 5.99559ZM29.8155 5.89461C29.8042 8.18369 29.8042 10.484 29.8042 12.7731C30.1857 12.7731 30.5673 12.7731 30.9488 12.7618C30.9263 11.1909 30.9824 9.60875 30.9263 8.03781L31.0498 8.10514C32.1494 9.57509 33.2603 11.0338 34.36 12.5038C34.6068 12.9077 35.1566 12.7618 35.5494 12.7394C35.5269 10.4728 35.5382 8.19491 35.5382 5.92827C35.1566 5.91705 34.7639 5.87216 34.3824 5.92827C34.4048 7.49921 34.36 9.07014 34.4048 10.6299C33.2042 9.14869 32.0597 7.61142 30.8814 6.1078C30.6458 5.77117 30.1633 5.97315 29.8155 5.89461ZM37.053 5.90583C37.0642 8.19491 37.053 10.4728 37.053 12.7506C38.4556 12.7618 39.8695 12.7731 41.2721 12.7394C41.2609 12.414 41.2609 12.0886 41.2609 11.7632C40.251 11.7632 39.2411 11.7407 38.2312 11.7632C38.1863 11.0719 38.1863 10.3785 38.2312 9.6873C38.983 9.70974 39.7348 9.69852 40.4866 9.69852C40.4866 9.38433 40.4866 9.05892 40.4754 8.73351C39.7236 8.75596 38.9718 8.72229 38.22 8.75596C38.1639 8.15002 38.2312 7.53287 38.1863 6.92694C39.2074 6.84839 40.2397 6.91571 41.2721 6.89327C41.2609 6.56786 41.2609 6.23123 41.2721 5.90583C39.8695 5.88338 38.4556 5.88338 37.053 5.90583ZM42.7757 5.91705C42.7869 8.18369 42.7869 10.4578 42.7757 12.7394C43.0899 12.7394 43.3928 12.7394 43.6958 12.7506V10.08C44.4252 10.0576 45.1882 10.1586 45.8951 9.93416C46.4562 9.75462 46.9723 9.36189 47.1968 8.81206C47.5109 8.07148 47.3987 7.12891 46.8265 6.54542C46.3552 6.07414 45.6483 5.91705 44.9974 5.89461C44.2569 5.89461 43.5163 5.87216 42.7757 5.91705ZM48.5433 12.7731C49.8112 12.7506 51.068 12.7731 52.336 12.7731C52.336 12.5038 52.3472 12.2457 52.3248 11.9876C51.3597 12.01 50.406 11.9876 49.441 11.9988C49.441 9.96782 49.4297 7.94804 49.4522 5.92827C49.1507 5.89096 48.8469 5.87596 48.5433 5.88338C48.5096 8.18369 48.4984 10.484 48.5433 12.7731ZM53.099 5.90583C53.1102 7.21868 53.099 8.52031 53.099 9.83317C53.0766 10.4503 53.1775 11.1011 53.5254 11.6285C54.2772 12.8516 56.0501 13.1209 57.2283 12.414C58.0026 11.9539 58.429 11.0563 58.4402 10.1698C58.4514 8.74473 58.4402 7.31967 58.4402 5.89461C58.1372 5.89461 57.8343 5.88338 57.5313 5.88338V10.0576C57.5425 10.6074 57.363 11.1909 56.9478 11.5612C56.6085 11.8488 56.1755 12.0019 55.7309 11.9916C55.2862 11.9812 54.8608 11.8081 54.5353 11.5051C54.165 11.1348 54.0079 10.585 54.0079 10.0576C54.0079 8.66619 54.0191 7.27479 54.0079 5.89461C53.705 5.88152 53.4015 5.88527 53.099 5.90583ZM60.92 6.22001C60.0336 6.73618 59.7867 8.07148 60.4487 8.85694C60.8751 9.35067 61.5484 9.49654 62.1543 9.69852C62.5807 9.83317 63.0745 10.0015 63.254 10.4503C63.4447 10.9889 63.1754 11.6622 62.6481 11.8866C62.3718 12 62.073 12.0479 61.7752 12.0265C61.4773 12.0051 61.1884 11.9149 60.9312 11.7632C60.6956 11.651 60.5161 11.4153 60.2468 11.348C59.9999 11.4265 59.9101 11.7183 59.7979 11.9427C60.6507 12.7843 62.0646 13.076 63.153 12.4925C64.1292 11.9764 64.522 10.5177 63.8263 9.63119C63.1642 8.87939 62.0421 8.92427 61.2567 8.36322C60.7293 7.99293 60.8639 7.11769 61.4025 6.82595C62.0533 6.46688 62.8725 6.65763 63.4335 7.09525C63.7814 7.31967 63.8936 6.78106 64.0282 6.56786C63.2091 5.81606 61.8738 5.63652 60.92 6.22001Z" fill="#E5E4E2"/>
<path id="Vector_2" d="M4.96094 5.92284C5.98205 5.9004 6.99194 5.92284 8.01305 5.91162C8.01305 7.80797 8.02427 9.70431 8.01305 11.6007C8.6302 11.668 9.25857 11.6231 9.87573 11.6343V12.7564C8.23746 12.7452 6.5992 12.7564 4.96094 12.7452C4.97216 12.3861 4.97216 12.0158 4.96094 11.6455C5.58931 11.6231 6.22891 11.6455 6.8685 11.6343C6.87973 10.097 6.8685 8.57099 6.8685 7.03372C6.22891 7.03372 5.60053 7.04494 4.96094 7.0225C4.97777 6.65782 4.97777 6.28752 4.96094 5.92284Z" fill="#E5E4E2"/>
<path id="Vector_3" d="M43.6961 6.61282C44.4143 6.6577 45.1885 6.48939 45.8618 6.83724C46.4902 7.18509 46.5912 8.06032 46.277 8.64381C46.0525 9.08143 45.5476 9.30585 45.0763 9.33951C44.605 9.37318 44.1562 9.35074 43.6961 9.35074V6.61282ZM24.396 7.09532C25.0805 6.8709 25.8997 6.91578 26.4944 7.3534C26.9993 7.71247 27.2574 8.34085 27.3135 8.94678C27.3808 9.57516 27.3135 10.2372 26.9881 10.787C26.27 12.0101 24.2277 12.0213 23.4647 10.8431C23.0383 10.1811 22.9934 9.33952 23.1505 8.57649C23.2133 8.24335 23.3609 7.93202 23.579 7.67256C23.7972 7.41311 24.0786 7.21429 24.396 7.09532Z" fill="#E5E4E2"/>
</g>
</g>
</g>
<defs>
<clipPath id="clip0_10731_29693">
<rect width="67.2462" height="16" fill="white" transform="translate(0.376953 0.200195)"/>
</clipPath>
</defs>
</svg>
