<svg width="62" height="17" viewBox="0 0 62 17" fill="none" xmlns="http://www.w3.org/2000/svg">
<g id="vendor-11-vivo 2" clip-path="url(#clip0_10731_29717)">
<g id="&#208;&#161;&#208;&#187;&#208;&#190;&#208;&#185; 2">
<g id="svg894">
<g id="layer1">
<g id="g44">
<g id="g18">
<path id="path16" d="M55.4756 13.5334H50.2187C47.2638 13.5334 47.0011 11.0977 47.0011 10.3541C47.0011 9.6104 47.2638 7.17451 50.2187 7.17451H55.4756C58.4307 7.17451 58.6934 9.61021 58.6934 10.3541C58.6934 11.0979 58.4307 13.5334 55.4756 13.5334ZM55.5898 4.50781H50.3103C44.8231 4.50781 44.335 8.98582 44.335 10.3541C44.335 11.7223 44.8225 16.2001 50.3103 16.2001H55.5904C61.0778 16.2001 61.5658 11.7223 61.5658 10.3541C61.5658 8.98582 61.0777 4.50781 55.5898 4.50781Z" fill="#E5E4E2"/>
</g>
<g id="g24">
<path id="path22" d="M43.2789 4.918H41.5671C40.8341 4.918 40.6831 5.04133 40.4005 5.45521C40.1179 5.86908 35.2214 13.2425 35.2214 13.2425C35.065 13.469 34.8991 13.5608 34.6932 13.5608C34.4874 13.5608 34.3217 13.469 34.1653 13.2425C34.1653 13.2425 29.269 5.86908 28.9862 5.45521C28.7034 5.04133 28.5526 4.918 27.8194 4.918H26.108C25.7144 4.918 25.5337 5.22188 25.7815 5.59284L31.6293 14.3515C32.5367 15.6681 33.2024 16.2001 34.6938 16.2001C36.1852 16.2001 36.8509 15.6681 37.7585 14.3515L43.6054 5.59342C43.8532 5.22246 43.6732 4.91858 43.2789 4.91858M20.7444 5.63382C20.7444 5.12136 20.9445 4.91858 21.4492 4.91858H22.7057C23.2103 4.91858 23.4104 5.12175 23.4104 5.63382V15.4847C23.4104 15.9971 23.2103 16.1999 22.7057 16.1999H21.4492C20.9447 16.1999 20.7444 15.9969 20.7444 15.4847V5.63344M20.6393 2.51188C20.2333 2.10593 20.2333 1.78253 20.6393 1.37542L21.5092 0.505527C21.9161 0.0984181 22.2389 0.0984181 22.6456 0.505527L23.5155 1.37542C23.9215 1.78272 23.9215 2.10535 23.5155 2.51227L22.6456 3.38216C22.2397 3.78927 21.9161 3.78927 21.5094 3.38216L20.6395 2.51227M18.0387 4.918H16.3289C15.5964 4.918 15.4454 5.04152 15.1632 5.45521C14.881 5.86889 9.98949 13.2423 9.98949 13.2423C9.83349 13.4688 9.66802 13.5607 9.46234 13.5607C9.25666 13.5607 9.0908 13.4688 8.9346 13.2423C8.9346 13.2423 4.04388 5.86889 3.76127 5.45501C3.47865 5.04114 3.32806 4.918 2.59581 4.918H0.885793C0.446401 4.918 0.312052 5.22188 0.559681 5.59342C0.80731 5.96496 6.4009 14.3513 6.4009 14.3513C7.30733 15.6681 7.97289 16.2001 9.46234 16.2001C10.9518 16.2001 11.6172 15.6681 12.5234 14.3513L18.365 5.59342C18.6122 5.22246 18.4783 4.91858 18.0387 4.91858" fill="#E5E4E2"/>
</g>
</g>
</g>
</g>
</g>
</g>
<defs>
<clipPath id="clip0_10731_29717">
<rect width="61.1286" height="16" fill="white" transform="translate(0.436523 0.200195)"/>
</clipPath>
</defs>
</svg>
